<?xml version="1.0" encoding="utf-8"?>
<!-- Generator: Adobe Illustrator 25.0.1, SVG Export Plug-In . SVG Version: 6.00 Build 0)  -->
<svg version="1.1" id="Calque_1" xmlns="http://www.w3.org/2000/svg" xmlns:xlink="http://www.w3.org/1999/xlink" x="0px" y="0px"
	 viewBox="0 0 1926.013 1310.299" enable-background="new 0 0 1926.013 1310.299" xml:space="preserve">
<g>
	<defs>
		<rect id="SVGID_1_" x="1816.77" y="-419.813" width="91.051" height="97.678"/>
	</defs>
	<clipPath id="SVGID_2_">
		<use xlink:href="#SVGID_1_"  overflow="visible"/>
	</clipPath>
</g>
<path d="M-28.751,1127.269l27.126-58.543c63.296-11.999,117.114-23.527,161.446-34.599c44.326-11.056,81.349-23.075,111.069-36.058
	c29.713-12.971,53.523-27.31,71.445-43.022c17.905-15.708,31.621-33.811,41.13-54.334c12.286-26.515,14.001-51.861,5.141-76.024
	c-8.861-24.164-28.059-43.085-57.576-56.761c-31.031-14.378-60.484-15.405-88.361-3.11c-27.895,12.306-51.43,35.889-70.621,70.756
	l-54.846-64.616c18.101-29.903,39.999-52.877,65.677-68.942c25.673-16.054,54.287-24.377,85.861-24.946
	c31.558-0.564,64.352,7.025,98.385,22.795c28.018,12.982,50.799,28.409,68.366,46.263c17.551,17.862,30.279,37.277,38.189,58.265
	c7.899,20.983,11.318,42.781,10.273,65.388c-1.062,22.615-6.57,44.677-16.536,66.184c-14.607,31.525-36.455,58.325-65.521,80.413
	c-29.078,22.082-67.458,40.625-115.113,55.61c-47.673,14.99-106.898,27.364-177.656,37.114l-0.696,1.503
	c6.467,1.785,15.012,4.988,25.639,9.6c10.622,4.623,21.243,9.245,31.871,13.855c10.622,4.623,19.183,8.434,25.692,11.45
	l156.116,72.337l-31.995,69.05L-28.751,1127.269z"/>
<path d="M947.339,1414.97c-41.666,50.713-92.73,75.303-153.222,73.778c-60.482-1.515-126.306-31.507-197.473-89.978
	c-71.156-58.462-113.346-117.215-126.577-176.263c-13.221-59.038,0.984-113.912,42.65-164.624
	c42.01-51.132,93.266-75.932,153.748-74.418c60.493,1.524,126.314,31.515,197.47,89.977
	c71.167,58.471,113.36,117.225,126.58,176.264C1003.746,1308.753,989.35,1363.838,947.339,1414.97z M889.178,1367.184
	c16.804-20.453,25.039-42.41,24.696-65.893c-0.342-23.467-9.445-48.444-27.318-74.905c-17.874-26.46-44.484-54.212-79.859-83.276
	c-35.362-29.053-67.762-49.785-97.185-62.184c-29.426-12.4-55.686-16.478-78.782-12.267c-23.094,4.226-43.046,16.558-59.85,37.01
	c-16.804,20.453-25.038,42.427-24.696,65.893c0.343,23.483,9.528,48.344,27.581,74.585c18.044,26.249,44.757,53.902,80.119,82.956
	c35.375,29.064,67.672,49.894,96.925,62.505c29.246,12.619,55.425,16.814,78.519,12.587
	C852.424,1399.984,872.374,1387.636,889.178,1367.184z"/>
<path d="M1079.654,1410.389v-64.522c52.386-37.497,96.37-70.583,131.939-99.267c35.57-28.666,64.109-55.137,85.618-79.412
	c21.507-24.261,37.082-47.281,46.737-69.072c9.642-21.78,14.476-43.972,14.476-66.591c0-29.223-9.1-52.941-27.297-71.14
	c-18.199-18.199-43.572-27.296-76.104-27.296c-34.2,0-61.355,11.451-81.48,34.327c-20.136,22.893-31.576,54.185-34.33,93.889
	l-76.929-35.57c3.852-34.742,14.062-64.793,30.606-90.165c16.545-25.36,39.008-44.941,67.417-58.732
	c28.396-13.779,61.343-20.68,98.852-20.68c30.879,0,58.035,4.42,81.48,13.234c23.434,8.828,43.145,21.093,59.146,36.811
	c15.989,15.718,28.255,34.058,36.811,55.01c8.544,20.966,12.821,43.299,12.821,67.003c0,34.745-8.556,68.247-25.643,100.508
	c-17.1,32.261-44.127,65.22-81.067,98.852c-36.953,33.643-85.488,69.77-145.59,108.364v1.656c6.618-1.099,15.718-1.786,27.299-2.069
	c11.581-0.271,23.161-0.542,34.742-0.828c11.581-0.271,20.951-0.413,28.125-0.413h172.06v76.103H1079.654z"/>
<path d="M1931.319,1176.228l-263.473-266.46c-7.753-7.841-15.702-16.064-23.843-24.702c-8.14-8.618-16.67-17.834-25.582-27.636
	c-0.54,26.128-4.772,52.234-12.724,78.31c-7.944,26.085-19,50.016-33.161,71.76l-65.855-43.071
	c7.072-9.318,13.969-21.553,20.679-36.734c6.713-15.162,12.664-31.9,17.832-50.204c5.176-18.296,8.877-36.116,11.123-53.458
	c2.236-17.336,2.421-32.442,0.547-45.33l52.94-52.346l383.869,388.221L1931.319,1176.228z"/>
<g>
	<path d="M1520.431,122.097c7.369,17.321,17.519,28.804,30.456,34.446c12.921,5.634,27.544,4.986,43.863-1.956
		c16.306-6.937,26.782-16.968,31.444-30.082c4.646-13.123,3.289-28.346-4.08-45.668c-7.593-17.847-17.727-29.632-30.398-35.373
		c-12.686-5.748-27.173-5.143-43.478,1.794c-16.319,6.943-26.932,17.016-31.828,30.244
		C1511.499,88.724,1512.839,104.251,1520.431,122.097z"/>
	
		<rect x="1057.205" y="185.901" transform="matrix(0.9202 -0.3915 0.3915 0.9202 10.7782 513.5684)" width="415.422" height="88.9"/>
</g>
<path d="M378.27,131.845c-0.914-32.818-10.588-62.827-29.028-90.04c-18.457-27.208-45.335-49.458-80.659-66.735
	c-35.825-17.522-71.378-25.202-106.659-23.035c-35.282,2.169-67.877,13.972-97.787,35.413S9.534,39.519-9.933,79.32
	c-19.473,39.814-28.485,78.097-27.048,114.87s12.504,69.932,33.197,99.479c20.696,29.545,49.703,53.442,87.02,71.694
	c36.817,18.007,72.924,26.116,108.343,24.32c35.4-1.792,66.519-13.088,93.341-33.888l-48.837-60.883
	c-17.98,12.796-36.931,20.017-56.848,21.679c-19.934,1.666-42.088-3.476-66.462-15.398c-22.39-10.951-39.366-25.409-50.915-43.399
	c-11.554-17.98-17.061-38.867-16.525-62.653c0.38-16.888,4.124-34.82,11.104-53.762l273.482,133.762
	c3.911-5.487,8.063-12.082,12.46-19.803c4.379-7.713,8.777-16.055,13.158-25.013C371.597,197.488,379.173,164.658,378.27,131.845z
	 M114.308,52.224c18.186-15.76,37.558-24.785,58.102-27.078c20.538-2.281,41.749,1.923,63.65,12.635
	c31.837,15.572,51.048,38.074,57.627,67.496c4.918,22.046,1.969,46.039-8.852,71.973L88.25,81.098
	C96.342,69.906,105.022,60.266,114.308,52.224z"/>
<path d="M750.441,309.48c-13.853-22.707-32.546-39.737-56.083-51.096c-23.549-11.348-49.993-17.033-79.345-17.033
	c-22.718,0-44.178,3.608-64.391,10.8c-20.225,7.207-37.674,18.693-52.342,34.48c-9.41,10.118-17.379,21.908-23.942,35.325
	l-3.893-72.298h-78.929v415.422h88.9V444.075c0-31.571,5.672-56.77,17.032-75.605c11.346-18.824,25.613-32.533,42.788-41.128
	c17.162-8.58,34.896-12.878,53.174-12.878c25.471,0,46.658,7.893,63.561,23.68c16.89,15.784,25.341,44.176,25.341,85.159v241.777
	h88.9V395.888C771.212,360.99,764.279,332.198,750.441,309.48z"/>
<g>
	<path d="M883.667,51.953c6.866-15.253,20.432-28.013,40.708-38.261c8.898-4.497,17.239-7.622,25.039-9.399
		c7.795-1.758,15.283-2.283,22.474-1.583l-14.029-64.594c-9.177-2.183-20.873-1.697-35.107,1.455
		c-14.227,3.162-29.015,8.613-44.331,16.354c-19.778,9.996-36.39,21.649-49.825,34.959C815.15,4.197,805.308,18.799,799.06,34.672
		c-6.253,15.888-8.474,32.677-6.655,50.375c1.807,17.707,7.465,35.952,16.957,54.733l26.985,53.389l-69.702,35.23l31.481,62.286
		l69.702-35.23l155.911,308.47l79.342-40.102L947.17,215.353l117.9-59.591l-31.481-62.286l-120.124,60.715l-23.986-47.456
		C878.739,85.487,876.796,67.224,883.667,51.953z"/>
</g>
<path d="M1972.791,372.783c0.357-26.596-6.406-50.963-20.287-73.107c-13.897-22.14-33.26-41.027-58.109-56.648
	c-19.234-12.091-39.322-20.457-60.262-25.126c-20.958-4.663-41.844-4.224-62.664,1.335c-13.351,3.558-26.373,9.299-39.07,17.165
	l35.182-63.28l-66.823-42.007l-221.09,351.702l75.264,47.313l117.621-187.107c16.802-26.728,35.016-45.043,54.657-54.944
	c19.624-9.898,38.999-13.911,58.114-12.047c19.096,1.87,36.397,7.67,51.871,17.397c21.564,13.556,35.301,31.515,41.209,53.876
	c5.899,22.352-2.057,50.887-23.868,85.584l-128.675,204.692l75.264,47.313l143.266-227.902
	C1962.961,427.447,1972.415,399.382,1972.791,372.783z"/>
</svg>
